<svg id="Livello_1" data-name="Livello 1" xmlns="http://www.w3.org/2000/svg" viewBox="0 0 1000 1000"><defs><style>.cls-1{fill:#fcfbfd;stroke-width:12px;}.cls-1,.cls-2{stroke:#292c2f;}.cls-1,.cls-2,.cls-3,.cls-4,.cls-5,.cls-6,.cls-7{stroke-miterlimit:10;}.cls-2,.cls-3{fill:#292c2f;}.cls-2{stroke-width:2px;}.cls-3,.cls-6,.cls-7{stroke:#fcfbfd;}.cls-3{stroke-width:4px;}.cls-4,.cls-7{fill:none;}.cls-4,.cls-5{stroke:#fff;}.cls-4{stroke-width:7px;}.cls-5,.cls-6{fill:#fff;}.cls-5{stroke-width:8px;}.cls-6,.cls-7{stroke-width:9px;}</style></defs><rect class="cls-1" x="100.76" y="365.46" width="825.44" height="261.96" rx="130.98"/><rect class="cls-2" x="114.28" y="378.34" width="798.89" height="235.76" rx="117.88"/><ellipse class="cls-3" cx="232.36" cy="497.05" rx="84.23" ry="84.85"/><ellipse class="cls-4" cx="232.37" cy="497.05" rx="70.19" ry="70.71"/><ellipse class="cls-4" cx="232.37" cy="497.73" rx="24.57" ry="24.75"/><line class="cls-4" x1="211.55" y1="484.6" x2="218.73" y2="489.16"/><line class="cls-4" x1="233.04" y1="472.98" x2="232.92" y2="481.54"/><line class="cls-4" x1="253.69" y1="485.42" x2="246.57" y2="490.11"/><line class="cls-4" x1="253.24" y1="510.79" x2="246.02" y2="506.3"/><line class="cls-4" x1="231.83" y1="513.92" x2="231.47" y2="522.48"/><line class="cls-4" x1="218.18" y1="505.35" x2="211.8" y2="508.43"/><path class="cls-5" d="M174.18,510.86l24.32-5.23-3.47,1.2a33.71,33.71,0,0,0,4.66,11,33.15,33.15,0,0,0,7,8.08l2.67-2.68-14,17.64,2.83,2.45c-5.24-3.36-10.14-9-13.79-14.88a54.06,54.06,0,0,1-7.21-21.91"/><path class="cls-5" d="M290.51,484.09l-24.32,5.23,3.48-1.2a34.09,34.09,0,0,0-4.67-11,33.1,33.1,0,0,0-7-8.07l-2.67,2.68,14-17.65-2.83-2.44c5.24,3.35,10.14,9,13.79,14.88a53.91,53.91,0,0,1,7.21,21.91"/><path class="cls-6" d="M421.83,497.05H343.22a.5.5,0,0,1,0-1h78.61a.5.5,0,0,1,0,1Z"/><path class="cls-6" d="M607.54,574.14a.5.5,0,0,1-.5-.5v-80a.5.5,0,0,1,.5-.5.51.51,0,0,1,.5.5v80A.5.5,0,0,1,607.54,574.14Z"/><path class="cls-6" d="M795.2,495.62a.49.49,0,0,1-.5-.49V416.49a.5.5,0,0,1,1,0v78.64A.49.49,0,0,1,795.2,495.62Z"/><circle class="cls-7" cx="419.48" cy="496.55" r="80"/><circle class="cls-7" cx="607.54" cy="495.99" r="80"/><circle class="cls-7" cx="795.2" cy="495.12" r="80"/><line class="cls-7" x1="343.22" y1="496.55" x2="421.83" y2="496.55"/><line class="cls-7" x1="607.54" y1="493.64" x2="607.54" y2="573.64"/><line class="cls-7" x1="795.2" y1="415.12" x2="795.2" y2="495.12"/></svg>