<svg id="Livello_1" data-name="Livello 1" xmlns="http://www.w3.org/2000/svg" viewBox="0 0 1000 1000"><defs><style>.cls-1,.cls-2,.cls-3,.cls-5,.cls-7{fill:none;}.cls-1,.cls-2,.cls-3,.cls-4,.cls-5,.cls-6,.cls-7,.cls-8{stroke:#b8c4cd;stroke-miterlimit:10;}.cls-1{stroke-width:12px;}.cls-2{stroke-width:7px;}.cls-3{stroke-width:2px;}.cls-4{fill:#53626a;stroke-width:7px;}.cls-5{stroke-width:4px;}.cls-6{fill:#b8c4cc;stroke-width:8px;}.cls-7,.cls-8{stroke-width:9px;}.cls-8{fill:#fff;}</style></defs><path class="cls-1" d="M912.72,487.38a131,131,0,0,1-131,131H218.26a131,131,0,0,1-131-131h0a131,131,0,0,1,131-131H781.74a131,131,0,0,1,131,131"/><line class="cls-2" x1="197.36" y1="474.93" x2="204.54" y2="479.48"/><line class="cls-2" x1="218.85" y1="463.31" x2="218.73" y2="471.87"/><line class="cls-2" x1="239.5" y1="475.75" x2="232.38" y2="480.44"/><line class="cls-2" x1="239.05" y1="501.12" x2="231.83" y2="496.63"/><line class="cls-2" x1="217.64" y1="504.25" x2="217.29" y2="512.8"/><line class="cls-2" x1="203.99" y1="495.67" x2="197.61" y2="498.76"/><rect class="cls-3" x="100.81" y="369.28" width="798.89" height="235.76" rx="117.88"/><path class="cls-4" d="M279,452a69.9,69.9,0,0,0-95.88-25.88c-33.57,19.52-45.07,62.76-25.69,96.58a69.9,69.9,0,0,0,95.88,25.88C286.85,529.09,298.35,485.84,279,452ZM240.6,488.27a22.72,22.72,0,1,1-22.72-22.34A22.53,22.53,0,0,1,240.6,488.27Z"/><ellipse class="cls-5" cx="218.17" cy="487.38" rx="84.23" ry="84.85"/><ellipse class="cls-2" cx="218.19" cy="488.06" rx="24.57" ry="24.75"/><path class="cls-6" d="M160,501.19,184.31,496l-3.47,1.21a36.31,36.31,0,0,0,11.66,19.07l2.67-2.68-14,17.64,2.83,2.45c-5.24-3.36-10.14-9-13.79-14.88A54.11,54.11,0,0,1,163,496.85"/><path class="cls-6" d="M276.32,474.42,252,479.65l3.48-1.2a33.78,33.78,0,0,0-4.67-11,33.34,33.34,0,0,0-7-8.08l-2.67,2.68,14-17.64L252.28,442c5.25,3.35,10.14,9,13.79,14.88a54,54,0,0,1,7.22,21.91"/><circle class="cls-7" cx="406" cy="487.49" r="80"/><circle class="cls-7" cx="594.06" cy="486.93" r="80"/><circle class="cls-7" cx="781.72" cy="486.06" r="80"/><path class="cls-8" d="M408.36,488H329.74a.5.5,0,0,1,0-1h78.62a.5.5,0,0,1,0,1Z"/><line class="cls-8" x1="329.74" y1="487.49" x2="408.36" y2="487.49"/><path class="cls-8" d="M594.06,565.08a.5.5,0,0,1-.5-.5v-80a.5.5,0,1,1,1,0v80A.5.5,0,0,1,594.06,565.08Z"/><line class="cls-8" x1="594.06" y1="484.58" x2="594.06" y2="564.58"/><path class="cls-8" d="M781.72,486.56a.5.5,0,0,1-.5-.49V407.43a.5.5,0,0,1,.5-.5.5.5,0,0,1,.5.5v78.64A.49.49,0,0,1,781.72,486.56Z"/><line class="cls-8" x1="781.72" y1="406.06" x2="781.72" y2="486.06"/></svg>