<svg id="Livello_1" data-name="Livello 1" xmlns="http://www.w3.org/2000/svg" viewBox="0 0 1000 1000"><defs><style>.cls-1,.cls-2{fill:none;}.cls-1,.cls-2,.cls-3{stroke:#fcfbfd;stroke-miterlimit:10;}.cls-1{stroke-width:12px;}.cls-2,.cls-3{stroke-width:27px;}.cls-3{fill:#fcfbfd;}</style></defs><ellipse class="cls-1" cx="511.41" cy="485.05" rx="252.68" ry="254.54"/><ellipse class="cls-2" cx="511.44" cy="485.05" rx="210.57" ry="212.12"/><ellipse class="cls-2" cx="511.44" cy="487.09" rx="73.7" ry="74.24"/><line class="cls-2" x1="448.96" y1="447.71" x2="470.51" y2="461.37"/><line class="cls-2" x1="513.44" y1="412.84" x2="513.08" y2="438.52"/><line class="cls-2" x1="575.38" y1="450.16" x2="554.02" y2="464.23"/><line class="cls-2" x1="574.05" y1="526.28" x2="552.38" y2="512.8"/><line class="cls-2" x1="509.8" y1="535.65" x2="508.74" y2="561.33"/><line class="cls-2" x1="468.87" y1="509.94" x2="449.73" y2="519.2"/><path class="cls-3" d="M336.87,526.48l72.95-15.7-10.42,3.61c3.32,13.8,7.38,22.3,14,33a99.69,99.69,0,0,0,21,24.24l8-8L400.5,616.5l8.49,7.33c-15.73-10.07-30.42-26.92-41.38-44.64-12.36-20-19-43.34-21.64-65.73"/><path class="cls-3" d="M685.85,446.17l-73,15.7,10.42-3.61c-3.32-13.8-7.38-22.3-14-33a99.82,99.82,0,0,0-21-24.23l-8,8,41.88-52.93-8.49-7.33c15.73,10.06,30.42,26.91,41.38,44.63,12.36,20,19,43.35,21.64,65.73"/></svg>