<svg id="Livello_1" data-name="Livello 1" xmlns="http://www.w3.org/2000/svg" viewBox="0 0 1000 1000"><defs><style>.cls-1{fill:#fcfbfd;stroke-width:12px;}.cls-1,.cls-2,.cls-3,.cls-4,.cls-5,.cls-6,.cls-7{stroke:#292c2f;stroke-miterlimit:10;}.cls-2,.cls-3,.cls-4,.cls-6{fill:none;}.cls-2{stroke-width:2px;}.cls-3{stroke-width:4px;}.cls-4{stroke-width:7px;}.cls-5{fill:#292c2f;stroke-width:8px;}.cls-6,.cls-7{stroke-width:9px;}.cls-7{fill:#fff;}</style></defs><rect class="cls-1" x="87.28" y="369.02" width="825.44" height="261.96" rx="130.98"/><rect class="cls-2" x="100.81" y="381.9" width="798.89" height="235.76" rx="117.88"/><ellipse class="cls-3" cx="218.89" cy="500.68" rx="84.23" ry="84.85"/><ellipse class="cls-4" cx="218.9" cy="500.68" rx="70.19" ry="70.71"/><ellipse class="cls-4" cx="218.9" cy="501.35" rx="24.57" ry="24.75"/><line class="cls-4" x1="198.07" y1="488.23" x2="205.25" y2="492.78"/><line class="cls-4" x1="219.56" y1="476.6" x2="219.44" y2="485.16"/><line class="cls-4" x1="240.21" y1="489.04" x2="233.09" y2="493.74"/><line class="cls-4" x1="239.77" y1="514.42" x2="232.54" y2="509.93"/><line class="cls-4" x1="218.35" y1="517.54" x2="218" y2="526.1"/><line class="cls-4" x1="204.71" y1="508.97" x2="198.33" y2="512.06"/><path class="cls-5" d="M160.7,514.48,185,509.25l-3.47,1.21a33.8,33.8,0,0,0,4.66,11,33.38,33.38,0,0,0,7,8.08l2.67-2.68-14,17.64,2.82,2.44c-5.24-3.35-10.13-9-13.79-14.87a54.11,54.11,0,0,1-7.21-21.91"/><path class="cls-5" d="M277,487.71,252.71,493l3.48-1.21a36.31,36.31,0,0,0-11.66-19.07l-2.67,2.68,14-17.64L253,455.26c5.25,3.36,10.14,9,13.79,14.88A54,54,0,0,1,274,492.05"/><circle class="cls-6" cx="406" cy="500.11" r="80"/><circle class="cls-6" cx="594.06" cy="499.55" r="80"/><circle class="cls-6" cx="781.72" cy="498.68" r="80"/><path class="cls-7" d="M408.36,500.61H329.74a.5.5,0,0,1,0-1h78.62a.5.5,0,0,1,0,1Z"/><line class="cls-7" x1="329.74" y1="500.11" x2="408.36" y2="500.11"/><path class="cls-7" d="M594.06,577.7a.5.5,0,0,1-.5-.5v-80a.5.5,0,0,1,1,0v80A.5.5,0,0,1,594.06,577.7Z"/><line class="cls-7" x1="594.06" y1="497.2" x2="594.06" y2="577.2"/><path class="cls-7" d="M781.72,499.18a.5.5,0,0,1-.5-.49V420.05a.5.5,0,0,1,.5-.5.5.5,0,0,1,.5.5v78.64A.49.49,0,0,1,781.72,499.18Z"/><line class="cls-7" x1="781.72" y1="418.68" x2="781.72" y2="498.68"/></svg>