<svg id="Livello_1" data-name="Livello 1" xmlns="http://www.w3.org/2000/svg" viewBox="0 0 1000 1000"><defs><style>.cls-1,.cls-2,.cls-3,.cls-5{fill:none;}.cls-1,.cls-2,.cls-3,.cls-4,.cls-5{stroke:#fcfbfd;stroke-miterlimit:10;}.cls-1{stroke-width:12px;}.cls-2,.cls-5{stroke-width:4px;}.cls-3,.cls-4{stroke-width:9px;}.cls-4{fill:#fcfbfd;}.cls-5{font-size:49px;font-family:Overpass-Thin, Overpass;font-weight:200;}.cls-6{letter-spacing:-0.01em;}.cls-7{letter-spacing:-0.01em;}.cls-8{letter-spacing:-0.03em;}.cls-9{letter-spacing:0em;}</style></defs><path class="cls-1" d="M850.32,494.88a131,131,0,0,1-131,131H319.87a131,131,0,0,1-131-131h0a131,131,0,0,1,131-131H719.34a131,131,0,0,1,131,131"/><ellipse class="cls-2" cx="317.63" cy="496.61" rx="84.23" ry="84.85"/><ellipse class="cls-3" cx="317.64" cy="496.61" rx="70.19" ry="70.71"/><ellipse class="cls-3" cx="317.64" cy="497.29" rx="24.57" ry="24.75"/><line class="cls-3" x1="296.81" y1="484.17" x2="303.99" y2="488.72"/><line class="cls-3" x1="318.3" y1="472.54" x2="318.18" y2="481.1"/><line class="cls-3" x1="338.95" y1="484.98" x2="331.83" y2="489.67"/><line class="cls-3" x1="338.51" y1="510.35" x2="331.28" y2="505.86"/><line class="cls-3" x1="317.09" y1="513.48" x2="316.74" y2="522.04"/><line class="cls-3" x1="303.45" y1="504.91" x2="297.07" y2="508"/><path class="cls-4" d="M259.45,510.42l24.31-5.23-3.47,1.2a34.08,34.08,0,0,0,4.66,11,33.14,33.14,0,0,0,7,8.07l2.67-2.67-14,17.64,2.83,2.44c-5.25-3.35-10.14-9-13.8-14.88a54.06,54.06,0,0,1-7.21-21.91"/><path class="cls-4" d="M375.77,483.65l-24.32,5.23,3.48-1.2a33.93,33.93,0,0,0-4.66-11,33.19,33.19,0,0,0-7-8.08l-2.67,2.68,14-17.64-2.83-2.45c5.25,3.36,10.14,9,13.79,14.88A53.93,53.93,0,0,1,372.74,488"/><text class="cls-5" transform="translate(446.91 453.52)">Su<tspan class="cls-6" x="55.42" y="0">st</tspan><tspan x="94.52" y="0">ained </tspan><tspan x="0" y="58.8">Ele</tspan><tspan class="cls-7" x="65.9" y="58.8">c</tspan><tspan x="88.59" y="58.8">t</tspan><tspan class="cls-8" x="106.28" y="58.8">r</tspan><tspan x="123.77" y="58.8">o-</tspan><tspan class="cls-6" x="169.78" y="58.8">Ac</tspan><tspan class="cls-9" x="223.14" y="58.8">ou</tspan><tspan class="cls-6" x="276.65" y="58.8">s</tspan><tspan x="298.55" y="58.8">tic </tspan><tspan x="0" y="117.6">Music</tspan></text></svg>