<svg id="Livello_1" data-name="Livello 1" xmlns="http://www.w3.org/2000/svg" viewBox="0 0 1000 1000"><defs><style>.cls-1,.cls-3,.cls-4,.cls-6{fill:none;}.cls-1,.cls-2,.cls-3,.cls-4,.cls-5,.cls-6{stroke:#292c2f;stroke-miterlimit:10;}.cls-1{stroke-width:12px;}.cls-2{fill:#b8c4cc;stroke-width:7px;}.cls-3{stroke-width:4px;}.cls-4{stroke-width:7px;}.cls-5{fill:#292c2f;stroke-width:8px;}.cls-6{font-size:49px;stroke-width:4px;font-family:Overpass-Thin, Overpass;font-weight:200;}.cls-7{letter-spacing:-0.01em;}.cls-8{letter-spacing:-0.01em;}.cls-9{letter-spacing:-0.03em;}.cls-10{letter-spacing:0em;}</style></defs><rect class="cls-1" x="189.28" y="384.79" width="661.43" height="261.96" rx="130.98"/><path class="cls-2" d="M380.05,479.34a69.92,69.92,0,0,0-95.88-25.88,71,71,0,0,0-25.69,96.59,69.91,69.91,0,0,0,95.88,25.88A71,71,0,0,0,380.05,479.34Zm-38.37,36.25A22.72,22.72,0,1,1,319,493.25,22.53,22.53,0,0,1,341.68,515.59Z"/><ellipse class="cls-3" cx="319.25" cy="514.7" rx="84.23" ry="84.85"/><ellipse class="cls-4" cx="319.27" cy="515.37" rx="24.57" ry="24.75"/><line class="cls-4" x1="298.44" y1="502.25" x2="305.62" y2="506.8"/><line class="cls-4" x1="319.93" y1="490.62" x2="319.81" y2="499.18"/><line class="cls-4" x1="340.58" y1="503.06" x2="333.46" y2="507.76"/><line class="cls-4" x1="340.13" y1="528.44" x2="332.91" y2="523.95"/><line class="cls-4" x1="318.72" y1="531.56" x2="318.37" y2="540.12"/><line class="cls-4" x1="305.07" y1="522.99" x2="298.69" y2="526.08"/><path class="cls-5" d="M261.07,528.5l24.32-5.23-3.47,1.21a33.8,33.8,0,0,0,4.66,11,33.38,33.38,0,0,0,7,8.08l2.67-2.68-14,17.64,2.83,2.44c-5.24-3.35-10.14-9-13.79-14.87a54.11,54.11,0,0,1-7.21-21.91"/><path class="cls-5" d="M377.4,501.73,353.08,507l3.48-1.21a33.72,33.72,0,0,0-4.67-11,33.34,33.34,0,0,0-7-8.08l-2.67,2.68,14-17.64-2.83-2.45c5.25,3.36,10.14,9,13.79,14.88a54.13,54.13,0,0,1,7.22,21.91"/><text class="cls-6" transform="translate(447.3 474.41)">Su<tspan class="cls-7" x="55.42" y="0">st</tspan><tspan x="94.52" y="0">ained </tspan><tspan x="0" y="58.8">Ele</tspan><tspan class="cls-8" x="65.9" y="58.8">c</tspan><tspan x="88.59" y="58.8">t</tspan><tspan class="cls-9" x="106.28" y="58.8">r</tspan><tspan x="123.77" y="58.8">o-</tspan><tspan class="cls-7" x="169.78" y="58.8">Ac</tspan><tspan class="cls-10" x="223.14" y="58.8">ou</tspan><tspan class="cls-7" x="276.65" y="58.8">s</tspan><tspan x="298.55" y="58.8">tic </tspan><tspan x="0" y="117.6">Music</tspan></text></svg>