<svg id="Livello_1" data-name="Livello 1" xmlns="http://www.w3.org/2000/svg" viewBox="0 0 1000 1000"><defs><style>.cls-1,.cls-2{fill:none;}.cls-1,.cls-2,.cls-3{stroke:#292c2f;stroke-miterlimit:10;}.cls-1{stroke-width:12px;}.cls-2{stroke-width:21px;}.cls-3{fill:#292c2f;stroke-width:24px;}</style></defs><ellipse class="cls-1" cx="530.44" cy="483.02" rx="252.68" ry="254.54"/><ellipse class="cls-2" cx="530.47" cy="483.02" rx="210.57" ry="212.12"/><ellipse class="cls-2" cx="530.47" cy="485.05" rx="73.7" ry="74.24"/><line class="cls-2" x1="467.99" y1="445.68" x2="489.54" y2="459.34"/><line class="cls-2" x1="532.47" y1="410.81" x2="532.11" y2="436.49"/><line class="cls-2" x1="594.41" y1="448.13" x2="573.05" y2="462.2"/><line class="cls-2" x1="593.08" y1="524.25" x2="571.41" y2="510.77"/><line class="cls-2" x1="528.83" y1="533.62" x2="527.77" y2="559.3"/><line class="cls-2" x1="487.9" y1="507.91" x2="468.76" y2="517.17"/><path class="cls-3" d="M355.89,524.45l73-15.7-10.42,3.61c3.31,13.8,7.38,22.3,14,33a99.87,99.87,0,0,0,21,24.24l8-8-41.88,52.92L428,621.8c-15.73-10.07-30.41-26.92-41.37-44.64-12.36-20-19-43.34-21.64-65.73"/><path class="cls-3" d="M704.88,444.14l-73,15.7,10.43-3.62c-3.32-13.79-7.39-22.29-14-33a100.07,100.07,0,0,0-21-24.23l-8,8,41.89-52.93-8.49-7.33c15.73,10.06,30.42,26.91,41.37,44.63,12.37,20,19,43.35,21.64,65.73"/></svg>