<svg id="Livello_1" data-name="Livello 1" xmlns="http://www.w3.org/2000/svg" viewBox="0 0 1000 1000"><defs><style>.cls-1{fill:#fcfbfd;stroke-width:12px;}.cls-1,.cls-2,.cls-7,.cls-8,.cls-9{stroke:#292c2f;stroke-miterlimit:10;}.cls-2{font-size:49px;font-family:Overpass-Thin, Overpass;font-weight:200;}.cls-2,.cls-7,.cls-8{fill:none;}.cls-2,.cls-7{stroke-width:4px;}.cls-3{letter-spacing:-0.01em;}.cls-4{letter-spacing:-0.01em;}.cls-5{letter-spacing:-0.03em;}.cls-6{letter-spacing:0em;}.cls-8{stroke-width:7px;}.cls-9{fill:#292c2f;stroke-width:8px;}</style></defs><rect class="cls-1" x="172.4" y="368.87" width="661.43" height="261.96" rx="130.98"/><text class="cls-2" transform="translate(430.42 458.49)">Su<tspan class="cls-3" x="55.42" y="0">st</tspan><tspan x="94.52" y="0">ained </tspan><tspan x="0" y="58.8">Ele</tspan><tspan class="cls-4" x="65.9" y="58.8">c</tspan><tspan x="88.59" y="58.8">t</tspan><tspan class="cls-5" x="106.28" y="58.8">r</tspan><tspan x="123.77" y="58.8">o-</tspan><tspan class="cls-3" x="169.78" y="58.8">Ac</tspan><tspan class="cls-6" x="223.14" y="58.8">ou</tspan><tspan class="cls-3" x="276.65" y="58.8">s</tspan><tspan x="298.55" y="58.8">tic </tspan><tspan x="0" y="117.6">Music</tspan></text><ellipse class="cls-7" cx="301.14" cy="501.59" rx="84.23" ry="84.85"/><ellipse class="cls-8" cx="301.15" cy="501.59" rx="70.19" ry="70.71"/><ellipse class="cls-8" cx="301.15" cy="502.26" rx="24.57" ry="24.75"/><line class="cls-8" x1="280.32" y1="489.14" x2="287.5" y2="493.69"/><line class="cls-8" x1="301.81" y1="477.51" x2="301.7" y2="486.07"/><line class="cls-8" x1="322.46" y1="489.95" x2="315.34" y2="494.65"/><line class="cls-8" x1="322.02" y1="515.33" x2="314.79" y2="510.83"/><line class="cls-8" x1="300.6" y1="518.45" x2="300.25" y2="527.01"/><line class="cls-8" x1="286.96" y1="509.88" x2="280.58" y2="512.97"/><path class="cls-9" d="M243,515.39l24.32-5.23-3.48,1.2a34,34,0,0,0,4.66,11,33.59,33.59,0,0,0,7,8.08l2.67-2.68-14,17.64,2.83,2.44c-5.25-3.35-10.14-9-13.79-14.87A54.13,54.13,0,0,1,246,511.06"/><path class="cls-9" d="M359.29,488.62,335,493.86l3.47-1.21a36.31,36.31,0,0,0-11.66-19.07l-2.67,2.68,14-17.64-2.83-2.45c5.24,3.36,10.14,9,13.79,14.88A54.11,54.11,0,0,1,356.25,493"/></svg>