<svg id="Livello_1" data-name="Livello 1" xmlns="http://www.w3.org/2000/svg" viewBox="0 0 1000 1000"><defs><style>.cls-1,.cls-2,.cls-4,.cls-6{fill:none;}.cls-1,.cls-2,.cls-3,.cls-4,.cls-5,.cls-6{stroke:#b8c4cd;stroke-miterlimit:10;}.cls-1{stroke-width:12px;}.cls-2{stroke-width:7px;}.cls-3{fill:#53626a;stroke-width:7px;}.cls-4{stroke-width:4px;}.cls-5{fill:#b8c4cc;stroke-width:8px;}.cls-6{font-size:49px;stroke-width:4px;font-family:Overpass-Thin, Overpass;font-weight:200;}.cls-7{letter-spacing:-0.01em;}.cls-8{letter-spacing:-0.01em;}.cls-9{letter-spacing:-0.03em;}.cls-10{letter-spacing:0em;}</style></defs><rect class="cls-1" x="149.68" y="381.93" width="661.43" height="261.96" rx="130.98"/><line class="cls-2" x1="258.37" y1="502.19" x2="265.56" y2="506.75"/><line class="cls-2" x1="279.87" y1="490.57" x2="279.75" y2="499.13"/><line class="cls-2" x1="300.51" y1="503.01" x2="293.39" y2="507.7"/><line class="cls-2" x1="300.07" y1="528.38" x2="292.85" y2="523.89"/><line class="cls-2" x1="278.66" y1="531.51" x2="278.3" y2="540.07"/><line class="cls-2" x1="265.01" y1="522.94" x2="258.63" y2="526.02"/><path class="cls-3" d="M340,479.29a69.9,69.9,0,0,0-95.88-25.88A71,71,0,0,0,218.42,550a69.9,69.9,0,0,0,95.88,25.88C347.87,556.35,359.37,513.11,340,479.29Zm-38.38,36.24a22.72,22.72,0,1,1-22.71-22.34A22.53,22.53,0,0,1,301.61,515.53Z"/><ellipse class="cls-4" cx="279.19" cy="514.64" rx="84.23" ry="84.85"/><ellipse class="cls-2" cx="279.2" cy="515.32" rx="24.57" ry="24.75"/><path class="cls-5" d="M221,528.45l24.32-5.24-3.48,1.21a33.94,33.94,0,0,0,4.67,11,33.34,33.34,0,0,0,7,8.08l2.67-2.68-14,17.64,2.83,2.45c-5.24-3.36-10.14-9-13.79-14.88a54,54,0,0,1-7.21-21.91"/><path class="cls-5" d="M337.34,501.68,313,506.91l3.48-1.2a34,34,0,0,0-4.67-11,33.1,33.1,0,0,0-7-8.07l-2.67,2.67,14-17.64-2.83-2.44c5.24,3.35,10.14,9,13.79,14.88A54,54,0,0,1,334.3,506"/><text class="cls-6" transform="translate(407.69 471.55)">Su<tspan class="cls-7" x="55.42" y="0">st</tspan><tspan x="94.52" y="0">ained </tspan><tspan x="0" y="58.8">Ele</tspan><tspan class="cls-8" x="65.9" y="58.8">c</tspan><tspan x="88.59" y="58.8">t</tspan><tspan class="cls-9" x="106.28" y="58.8">r</tspan><tspan x="123.77" y="58.8">o-</tspan><tspan class="cls-7" x="169.78" y="58.8">Ac</tspan><tspan class="cls-10" x="223.14" y="58.8">ou</tspan><tspan class="cls-7" x="276.65" y="58.8">s</tspan><tspan x="298.55" y="58.8">tic </tspan><tspan x="0" y="117.6">Music</tspan></text></svg>