<svg id="Livello_1" data-name="Livello 1" xmlns="http://www.w3.org/2000/svg" viewBox="0 0 1000 1000"><defs><style>.cls-1,.cls-2,.cls-3,.cls-4{fill:none;}.cls-1,.cls-2,.cls-3,.cls-4,.cls-5,.cls-6{stroke:#fcfbfd;stroke-miterlimit:10;}.cls-1{stroke-width:12px;}.cls-2{stroke-width:2px;}.cls-3{stroke-width:4px;}.cls-4,.cls-5,.cls-6{stroke-width:9px;}.cls-5{fill:#fcfbfd;}.cls-6{fill:#fff;}</style></defs><rect class="cls-1" x="82.94" y="357.29" width="825.44" height="261.96" rx="130.98"/><rect class="cls-2" x="96.46" y="370.17" width="798.89" height="235.76" rx="117.88"/><ellipse class="cls-3" cx="213.93" cy="488.27" rx="84.23" ry="84.85"/><ellipse class="cls-4" cx="213.94" cy="488.27" rx="70.19" ry="70.71"/><ellipse class="cls-4" cx="213.94" cy="488.95" rx="24.57" ry="24.75"/><line class="cls-4" x1="193.11" y1="475.82" x2="200.29" y2="480.38"/><line class="cls-4" x1="214.6" y1="464.2" x2="214.49" y2="472.76"/><line class="cls-4" x1="235.25" y1="476.64" x2="228.13" y2="481.33"/><line class="cls-4" x1="234.81" y1="502.01" x2="227.58" y2="497.52"/><line class="cls-4" x1="213.39" y1="505.14" x2="213.04" y2="513.7"/><line class="cls-4" x1="199.75" y1="496.57" x2="193.37" y2="499.65"/><path class="cls-5" d="M155.75,502.08l24.32-5.23-3.48,1.2a34.08,34.08,0,0,0,4.66,11,33.33,33.33,0,0,0,7,8.07l2.67-2.68-14,17.65,2.83,2.44c-5.25-3.35-10.14-9-13.8-14.88a54.06,54.06,0,0,1-7.21-21.91"/><path class="cls-5" d="M272.07,475.31l-24.31,5.23,3.47-1.2a33.93,33.93,0,0,0-4.66-11,33.19,33.19,0,0,0-7-8.08L236.9,463l14-17.65L248,442.86c5.25,3.36,10.14,9,13.8,14.88A54.06,54.06,0,0,1,269,479.65"/><circle class="cls-4" cx="401.66" cy="488.38" r="80"/><circle class="cls-4" cx="589.72" cy="487.83" r="80"/><circle class="cls-4" cx="777.38" cy="486.95" r="80"/><path class="cls-6" d="M404,488.88H325.4a.5.5,0,0,1-.5-.5.5.5,0,0,1,.5-.5H404a.51.51,0,0,1,.5.5A.5.5,0,0,1,404,488.88Z"/><line class="cls-6" x1="325.4" y1="488.38" x2="404.02" y2="488.38"/><path class="cls-6" d="M589.72,566a.5.5,0,0,1-.5-.5v-80a.5.5,0,0,1,1,0v80A.5.5,0,0,1,589.72,566Z"/><line class="cls-6" x1="589.72" y1="485.47" x2="589.72" y2="565.47"/><path class="cls-6" d="M777.38,487.45a.49.49,0,0,1-.5-.49V408.32a.5.5,0,0,1,1,0V487A.49.49,0,0,1,777.38,487.45Z"/><line class="cls-6" x1="777.38" y1="406.95" x2="777.38" y2="486.95"/></svg>