<svg id="Livello_1" data-name="Livello 1" xmlns="http://www.w3.org/2000/svg" viewBox="0 0 1000 1000"><defs><style>.cls-1,.cls-3{fill:none;}.cls-1,.cls-2,.cls-3,.cls-4{stroke:#b8c4cd;stroke-miterlimit:10;}.cls-1{stroke-width:21px;}.cls-2{fill:#53626a;stroke-width:21px;}.cls-3{stroke-width:12px;}.cls-4{fill:#b8c4cc;stroke-width:24px;}</style></defs><line class="cls-1" x1="441.89" y1="449.32" x2="463.44" y2="462.98"/><line class="cls-1" x1="506.37" y1="414.45" x2="506.02" y2="440.13"/><line class="cls-1" x1="568.31" y1="451.77" x2="546.95" y2="465.84"/><line class="cls-1" x1="566.98" y1="527.89" x2="545.31" y2="514.41"/><line class="cls-1" x1="502.74" y1="537.27" x2="501.68" y2="562.94"/><line class="cls-1" x1="461.8" y1="511.55" x2="442.66" y2="520.81"/><path class="cls-2" d="M686.74,380.61C628.59,279.15,499.81,244.39,399.09,303S263.87,491.27,322,592.72,509,728.94,609.66,670.36,744.88,482.06,686.74,380.61ZM571.61,489.35c0,37-30.51,67-68.15,67s-68.14-30-68.14-67,30.51-67,68.14-67S571.61,452.33,571.61,489.35Z"/><ellipse class="cls-3" cx="504.34" cy="486.67" rx="252.68" ry="254.54"/><ellipse class="cls-1" cx="504.38" cy="488.7" rx="73.7" ry="74.24"/><path class="cls-4" d="M329.8,528.09l73-15.7L392.33,516c3.32,13.8,7.39,22.3,14,33a100.12,100.12,0,0,0,21,24.24l8-8-41.89,52.93,8.49,7.33c-15.73-10.07-30.42-26.92-41.37-44.64-12.37-20-19-43.34-21.64-65.73"/><path class="cls-4" d="M678.79,447.78l-73,15.7,10.43-3.61c-3.32-13.8-7.39-22.3-14-33a100,100,0,0,0-21-24.23l-8,8,41.88-52.93-8.48-7.33c15.73,10.06,30.41,26.91,41.37,44.63,12.36,20,19,43.35,21.64,65.73"/></svg>