<svg id="Livello_1" data-name="Livello 1" xmlns="http://www.w3.org/2000/svg" viewBox="0 0 1000 1000"><defs><style>.cls-1{fill:#fdfcfe;stroke-width:12px;}.cls-1,.cls-2,.cls-3{stroke:#292c2f;stroke-miterlimit:10;}.cls-2{fill:none;stroke-width:21px;}.cls-3{fill:#2d2d2a;stroke-width:24px;}</style></defs><ellipse class="cls-1" cx="510.25" cy="500.74" rx="252.68" ry="254.54"/><ellipse class="cls-2" cx="510.29" cy="500.74" rx="210.57" ry="212.12"/><ellipse class="cls-2" cx="510.29" cy="502.78" rx="73.7" ry="74.24"/><line class="cls-2" x1="447.8" y1="463.4" x2="469.35" y2="477.06"/><line class="cls-2" x1="512.28" y1="428.53" x2="511.93" y2="454.21"/><line class="cls-2" x1="574.22" y1="465.85" x2="552.86" y2="479.92"/><line class="cls-2" x1="572.89" y1="541.97" x2="551.22" y2="528.49"/><line class="cls-2" x1="508.65" y1="551.34" x2="507.59" y2="577.02"/><line class="cls-2" x1="467.71" y1="525.63" x2="448.57" y2="534.89"/><path class="cls-3" d="M335.71,542.17l73-15.7-10.43,3.61c3.32,13.8,7.39,22.3,14,33a100.12,100.12,0,0,0,21,24.24l8-8-41.89,52.93,8.49,7.33c-15.73-10.07-30.42-26.92-41.37-44.64-12.37-20-19-43.34-21.64-65.73"/><path class="cls-3" d="M684.7,461.86l-73,15.7L622.17,474c-3.32-13.8-7.39-22.3-14-33a100,100,0,0,0-21-24.23l-8,8,41.88-52.93-8.48-7.33C628.31,374.57,643,391.42,654,409.14c12.36,20,19,43.35,21.64,65.73"/></svg>