<svg id="Livello_1" data-name="Livello 1" xmlns="http://www.w3.org/2000/svg" viewBox="0 0 1000 1000"><defs><style>.cls-1,.cls-5{fill:#292c2f;}.cls-1,.cls-3,.cls-4,.cls-5{stroke:#292c2f;}.cls-1,.cls-2,.cls-3,.cls-4,.cls-5,.cls-6{stroke-miterlimit:10;}.cls-1{stroke-width:12px;}.cls-2,.cls-6{fill:none;stroke:#fcfbfd;}.cls-2,.cls-3,.cls-6{stroke-width:4px;}.cls-3,.cls-4{fill:#fcfbfd;}.cls-4{stroke-width:7px;}.cls-5{stroke-width:8px;}.cls-6{font-size:49px;font-family:Overpass-Thin, Overpass;font-weight:200;}.cls-7{letter-spacing:-0.01em;}.cls-8{letter-spacing:-0.01em;}.cls-9{letter-spacing:-0.03em;}.cls-10{letter-spacing:0em;}</style></defs><rect class="cls-1" x="169.28" y="361.19" width="661.43" height="261.96" rx="130.98"/><rect class="cls-2" x="180.12" y="374.07" width="640.16" height="235.76" rx="117.88"/><ellipse class="cls-3" cx="300.18" cy="493.9" rx="84.23" ry="84.85"/><ellipse class="cls-4" cx="300.19" cy="493.9" rx="70.19" ry="70.71"/><ellipse class="cls-4" cx="300.19" cy="494.58" rx="24.57" ry="24.75"/><line class="cls-4" x1="279.36" y1="481.45" x2="286.54" y2="486.01"/><line class="cls-4" x1="300.85" y1="469.83" x2="300.74" y2="478.39"/><line class="cls-4" x1="321.5" y1="482.27" x2="314.38" y2="486.96"/><line class="cls-4" x1="321.06" y1="507.64" x2="313.84" y2="503.15"/><line class="cls-4" x1="299.64" y1="510.77" x2="299.29" y2="519.33"/><line class="cls-4" x1="286" y1="502.2" x2="279.62" y2="505.28"/><path class="cls-5" d="M242,507.71l24.32-5.23-3.48,1.2a33.87,33.87,0,0,0,4.67,11,33.29,33.29,0,0,0,7,8.07l2.67-2.68-14,17.65,2.83,2.44c-5.25-3.35-10.14-9-13.79-14.88A54.08,54.08,0,0,1,245,503.37"/><path class="cls-5" d="M358.33,480.94,334,486.17l3.47-1.2a33.71,33.71,0,0,0-4.66-11,33.19,33.19,0,0,0-7-8.08l-2.67,2.68,14-17.65-2.83-2.44c5.24,3.36,10.14,9,13.79,14.88a54.06,54.06,0,0,1,7.21,21.91"/><text class="cls-6" transform="translate(427.3 450.81)">Su<tspan class="cls-7" x="55.42" y="0">st</tspan><tspan x="94.52" y="0">ained </tspan><tspan x="0" y="58.8">Ele</tspan><tspan class="cls-8" x="65.9" y="58.8">c</tspan><tspan x="88.59" y="58.8">t</tspan><tspan class="cls-9" x="106.28" y="58.8">r</tspan><tspan x="123.77" y="58.8">o-</tspan><tspan class="cls-7" x="169.78" y="58.8">Ac</tspan><tspan class="cls-10" x="223.14" y="58.8">ou</tspan><tspan class="cls-7" x="276.65" y="58.8">s</tspan><tspan x="298.55" y="58.8">tic </tspan><tspan x="0" y="117.6">Music</tspan></text></svg>