<svg id="Livello_1" data-name="Livello 1" xmlns="http://www.w3.org/2000/svg" viewBox="0 0 1000 1000"><defs><style>.cls-1,.cls-2,.cls-3,.cls-4{fill:none;}.cls-1,.cls-2,.cls-3,.cls-4,.cls-5,.cls-6{stroke:#292c2f;stroke-miterlimit:10;}.cls-1{stroke-width:12px;}.cls-2{stroke-width:2px;}.cls-3{stroke-width:4px;}.cls-4,.cls-5,.cls-6{stroke-width:9px;}.cls-5{fill:#2d2d2a;}.cls-6{fill:#fff;}</style></defs><rect class="cls-1" x="106.95" y="361.96" width="825.44" height="261.96" rx="130.98"/><rect class="cls-2" x="120.48" y="374.84" width="798.89" height="235.76" rx="117.88"/><ellipse class="cls-3" cx="237.94" cy="492.94" rx="84.23" ry="84.85"/><ellipse class="cls-4" cx="237.95" cy="492.94" rx="70.19" ry="70.71"/><ellipse class="cls-4" cx="237.95" cy="493.62" rx="24.57" ry="24.75"/><line class="cls-4" x1="217.13" y1="480.49" x2="224.31" y2="485.04"/><line class="cls-4" x1="238.62" y1="468.87" x2="238.5" y2="477.43"/><line class="cls-4" x1="259.27" y1="481.31" x2="252.15" y2="486"/><line class="cls-4" x1="258.82" y1="506.68" x2="251.6" y2="502.19"/><line class="cls-4" x1="237.41" y1="509.81" x2="237.05" y2="518.37"/><line class="cls-4" x1="223.76" y1="501.23" x2="217.38" y2="504.32"/><path class="cls-5" d="M179.76,506.75l24.32-5.24-3.48,1.21a33.94,33.94,0,0,0,4.67,11,33.34,33.34,0,0,0,7,8.08l2.67-2.68-14,17.64,2.83,2.45c-5.24-3.36-10.14-9-13.79-14.88a54.11,54.11,0,0,1-7.21-21.91"/><path class="cls-5" d="M296.09,480l-24.32,5.23,3.48-1.2a34,34,0,0,0-4.67-11,33.34,33.34,0,0,0-7-8.08l-2.67,2.68,14-17.64-2.83-2.44c5.24,3.35,10.14,9,13.79,14.88a53.86,53.86,0,0,1,7.21,21.91"/><circle class="cls-4" cx="425.67" cy="493.05" r="80"/><circle class="cls-4" cx="613.74" cy="492.49" r="80"/><circle class="cls-4" cx="801.4" cy="491.62" r="80"/><path class="cls-6" d="M428,493.55H349.42a.5.5,0,0,1,0-1H428a.5.5,0,0,1,0,1Z"/><line class="cls-6" x1="349.42" y1="493.05" x2="428.03" y2="493.05"/><path class="cls-6" d="M613.73,570.64a.5.5,0,0,1-.5-.5v-80a.51.51,0,0,1,.5-.5.5.5,0,0,1,.5.5v80A.5.5,0,0,1,613.73,570.64Z"/><line class="cls-6" x1="613.74" y1="490.14" x2="613.74" y2="570.14"/><path class="cls-6" d="M801.4,492.12a.49.49,0,0,1-.5-.49V413a.5.5,0,0,1,.5-.5.5.5,0,0,1,.5.5v78.64A.5.5,0,0,1,801.4,492.12Z"/><line class="cls-6" x1="801.4" y1="411.62" x2="801.4" y2="491.62"/></svg>