<svg id="Livello_1" data-name="Livello 1" xmlns="http://www.w3.org/2000/svg" viewBox="0 0 1000 1000"><defs><style>.cls-1,.cls-2,.cls-4,.cls-5,.cls-7{fill:none;}.cls-1,.cls-2,.cls-3,.cls-4,.cls-5,.cls-6,.cls-7,.cls-8{stroke:#292c2f;stroke-miterlimit:10;}.cls-1{stroke-width:12px;}.cls-2{stroke-width:2px;}.cls-3{fill:#b8c4cc;stroke-width:7px;}.cls-4{stroke-width:4px;}.cls-5{stroke-width:7px;}.cls-6{fill:#292c2f;stroke-width:8px;}.cls-7,.cls-8{stroke-width:9px;}.cls-8{fill:#fff;}</style></defs><path class="cls-1" d="M935.51,487.38a131,131,0,0,1-131,131H241.05a131,131,0,0,1-131-131h0a131,131,0,0,1,131-131H804.54a131,131,0,0,1,131,131"/><rect class="cls-2" x="123.6" y="369.28" width="798.89" height="235.76" rx="117.88"/><path class="cls-3" d="M301.77,452a69.92,69.92,0,0,0-95.89-25.88c-33.57,19.52-45.07,62.76-25.69,96.58a69.91,69.91,0,0,0,95.88,25.88A71,71,0,0,0,301.77,452Zm-38.38,36.24a22.72,22.72,0,1,1-22.72-22.34A22.53,22.53,0,0,1,263.39,488.27Z"/><ellipse class="cls-4" cx="240.97" cy="487.38" rx="84.23" ry="84.85"/><ellipse class="cls-5" cx="240.98" cy="488.06" rx="24.57" ry="24.75"/><line class="cls-5" x1="220.15" y1="474.93" x2="227.33" y2="479.48"/><line class="cls-5" x1="241.64" y1="463.31" x2="241.53" y2="471.87"/><line class="cls-5" x1="262.29" y1="475.75" x2="255.17" y2="480.44"/><line class="cls-5" x1="261.85" y1="501.12" x2="254.62" y2="496.63"/><line class="cls-5" x1="240.43" y1="504.25" x2="240.08" y2="512.8"/><line class="cls-5" x1="226.79" y1="495.67" x2="220.41" y2="498.76"/><path class="cls-6" d="M182.79,501.19,207.11,496l-3.48,1.21a36.31,36.31,0,0,0,11.66,19.07l2.67-2.68-14,17.64,2.83,2.45c-5.25-3.36-10.14-9-13.79-14.88a54.13,54.13,0,0,1-7.22-21.91"/><path class="cls-6" d="M299.12,474.42l-24.32,5.23,3.47-1.2a33.77,33.77,0,0,0-4.66-11,33.38,33.38,0,0,0-7-8.08l-2.67,2.68,14-17.64L275.08,442c5.24,3.35,10.14,9,13.79,14.88a54,54,0,0,1,7.21,21.91"/><circle class="cls-7" cx="428.79" cy="487.49" r="80"/><circle class="cls-7" cx="616.86" cy="486.93" r="80"/><circle class="cls-7" cx="804.52" cy="486.06" r="80"/><path class="cls-8" d="M431.15,488H352.54a.5.5,0,1,1,0-1h78.61a.5.5,0,0,1,0,1Z"/><line class="cls-8" x1="352.54" y1="487.49" x2="431.15" y2="487.49"/><path class="cls-8" d="M616.85,565.08a.5.5,0,0,1-.5-.5v-80a.5.5,0,0,1,.5-.5.5.5,0,0,1,.5.5v80A.5.5,0,0,1,616.85,565.08Z"/><line class="cls-8" x1="616.86" y1="484.58" x2="616.86" y2="564.58"/><path class="cls-8" d="M804.52,486.56a.49.49,0,0,1-.5-.49V407.43a.5.5,0,0,1,.5-.5.5.5,0,0,1,.5.5v78.64A.5.5,0,0,1,804.52,486.56Z"/><line class="cls-8" x1="804.52" y1="406.06" x2="804.52" y2="486.06"/></svg>