<svg id="Livello_1" data-name="Livello 1" xmlns="http://www.w3.org/2000/svg" viewBox="0 0 1000 1000"><defs><style>.cls-1{fill:#292c2f;stroke:#292c2f;stroke-width:12px;}.cls-1,.cls-2,.cls-3,.cls-4,.cls-5,.cls-6,.cls-7,.cls-8{stroke-miterlimit:10;}.cls-2,.cls-3,.cls-5,.cls-7{fill:none;}.cls-2,.cls-3,.cls-4,.cls-5,.cls-6,.cls-7,.cls-8{stroke:#b8c4cd;}.cls-2{stroke-width:7px;}.cls-3{stroke-width:2px;}.cls-4{fill:#53626a;stroke-width:7px;}.cls-5{stroke-width:4px;}.cls-6{fill:#b8c4cc;stroke-width:8px;}.cls-7,.cls-8{stroke-width:9px;}.cls-8{fill:#fff;}</style></defs><path class="cls-1" d="M907.92,492a131,131,0,0,1-131,131H213.46a131,131,0,0,1-131-131h0a131,131,0,0,1,131-131H777a131,131,0,0,1,131,131"/><line class="cls-2" x1="192.56" y1="479.51" x2="199.74" y2="484.06"/><line class="cls-2" x1="214.05" y1="467.89" x2="213.94" y2="476.45"/><line class="cls-2" x1="234.7" y1="480.33" x2="227.58" y2="485.02"/><line class="cls-2" x1="234.26" y1="505.7" x2="227.03" y2="501.21"/><line class="cls-2" x1="212.84" y1="508.82" x2="212.49" y2="517.38"/><line class="cls-2" x1="199.2" y1="500.25" x2="192.82" y2="503.34"/><rect class="cls-3" x="96.01" y="373.85" width="798.89" height="235.76" rx="117.88"/><path class="cls-4" d="M274.18,456.61a69.92,69.92,0,0,0-95.89-25.88c-33.57,19.52-45.07,62.76-25.69,96.58a69.91,69.91,0,0,0,95.88,25.88A71,71,0,0,0,274.18,456.61ZM235.8,492.85a22.72,22.72,0,1,1-22.72-22.34A22.53,22.53,0,0,1,235.8,492.85Z"/><ellipse class="cls-5" cx="213.38" cy="491.96" rx="84.23" ry="84.85"/><ellipse class="cls-2" cx="213.39" cy="492.63" rx="24.57" ry="24.75"/><path class="cls-6" d="M155.2,505.77l24.32-5.24L176,501.74a36.31,36.31,0,0,0,11.66,19.07l2.67-2.68-14,17.64,2.83,2.45c-5.25-3.36-10.14-9-13.79-14.88a54,54,0,0,1-7.22-21.91"/><path class="cls-6" d="M271.53,479l-24.32,5.23,3.47-1.21A33.8,33.8,0,0,0,246,472a33.38,33.38,0,0,0-7-8.08l-2.67,2.68,14-17.64-2.82-2.44c5.24,3.35,10.13,9,13.79,14.87a54.11,54.11,0,0,1,7.21,21.91"/><circle class="cls-7" cx="401.2" cy="492.07" r="80"/><circle class="cls-7" cx="589.26" cy="491.51" r="80"/><circle class="cls-7" cx="776.93" cy="490.64" r="80"/><path class="cls-8" d="M403.56,492.57H325a.5.5,0,0,1,0-1h78.61a.5.5,0,0,1,0,1Z"/><line class="cls-8" x1="324.95" y1="492.07" x2="403.56" y2="492.07"/><path class="cls-8" d="M589.26,569.66a.5.5,0,0,1-.5-.5v-80a.5.5,0,0,1,.5-.5.5.5,0,0,1,.5.5v80A.5.5,0,0,1,589.26,569.66Z"/><line class="cls-8" x1="589.26" y1="489.16" x2="589.26" y2="569.16"/><path class="cls-8" d="M776.93,491.14a.49.49,0,0,1-.5-.49V412a.49.49,0,0,1,.5-.49.5.5,0,0,1,.5.49v78.65A.5.5,0,0,1,776.93,491.14Z"/><line class="cls-8" x1="776.93" y1="410.64" x2="776.93" y2="490.64"/></svg>