<svg id="Livello_1" data-name="Livello 1" xmlns="http://www.w3.org/2000/svg" viewBox="0 0 1000 1000"><defs><style>.cls-1,.cls-2,.cls-7,.cls-8{fill:none;}.cls-1,.cls-2,.cls-7,.cls-8,.cls-9{stroke:#292c2f;stroke-miterlimit:10;}.cls-1{stroke-width:12px;}.cls-2{font-size:49px;font-family:Overpass-Thin, Overpass;font-weight:200;}.cls-2,.cls-7{stroke-width:4px;}.cls-3{letter-spacing:-0.01em;}.cls-4{letter-spacing:-0.01em;}.cls-5{letter-spacing:-0.03em;}.cls-6{letter-spacing:0em;}.cls-8{stroke-width:7px;}.cls-9{fill:#292c2f;stroke-width:8px;}</style></defs><rect class="cls-1" x="173.87" y="359.99" width="661.43" height="261.96" rx="130.98"/><text class="cls-2" transform="translate(431.89 449.6)">Su<tspan class="cls-3" x="55.42" y="0">st</tspan><tspan x="94.52" y="0">ained </tspan><tspan x="0" y="58.8">Ele</tspan><tspan class="cls-4" x="65.9" y="58.8">c</tspan><tspan x="88.59" y="58.8">t</tspan><tspan class="cls-5" x="106.28" y="58.8">r</tspan><tspan x="123.77" y="58.8">o-</tspan><tspan class="cls-3" x="169.78" y="58.8">Ac</tspan><tspan class="cls-6" x="223.14" y="58.8">ou</tspan><tspan class="cls-3" x="276.65" y="58.8">s</tspan><tspan x="298.55" y="58.8">tic </tspan><tspan x="0" y="117.6">Music</tspan></text><ellipse class="cls-7" cx="302.61" cy="492.7" rx="84.23" ry="84.85"/><ellipse class="cls-8" cx="302.62" cy="492.7" rx="70.19" ry="70.71"/><ellipse class="cls-8" cx="302.62" cy="493.38" rx="24.57" ry="24.75"/><line class="cls-8" x1="281.79" y1="480.25" x2="288.97" y2="484.8"/><line class="cls-8" x1="303.28" y1="468.63" x2="303.16" y2="477.19"/><line class="cls-8" x1="323.93" y1="481.07" x2="316.81" y2="485.76"/><line class="cls-8" x1="323.49" y1="506.44" x2="316.26" y2="501.95"/><line class="cls-8" x1="302.07" y1="509.57" x2="301.72" y2="518.12"/><line class="cls-8" x1="288.43" y1="500.99" x2="282.05" y2="504.08"/><path class="cls-9" d="M244.42,506.51l24.32-5.24-3.47,1.21a36.31,36.31,0,0,0,11.66,19.07l2.67-2.68-14,17.64,2.82,2.45c-5.24-3.36-10.13-9-13.79-14.88a54.11,54.11,0,0,1-7.21-21.91"/><path class="cls-9" d="M360.75,479.74,336.43,485l3.48-1.2a34,34,0,0,0-4.66-11,33.59,33.59,0,0,0-7-8.08l-2.67,2.68,14-17.64-2.83-2.44c5.25,3.35,10.14,9,13.79,14.88a53.88,53.88,0,0,1,7.22,21.91"/></svg>