<svg id="Livello_1" data-name="Livello 1" xmlns="http://www.w3.org/2000/svg" viewBox="0 0 1000 1000"><defs><style>.cls-1{fill:#292c2f;stroke-width:12px;}.cls-1,.cls-2,.cls-3,.cls-4,.cls-5,.cls-6{stroke:#b8c4cd;stroke-miterlimit:10;}.cls-2,.cls-4,.cls-6{fill:none;}.cls-2{stroke-width:7px;}.cls-3{fill:#53626a;stroke-width:7px;}.cls-4{stroke-width:4px;}.cls-5{fill:#b8c4cc;stroke-width:8px;}.cls-6{font-size:49px;stroke-width:4px;font-family:Overpass-Thin, Overpass;font-weight:200;}.cls-7{letter-spacing:-0.01em;}.cls-8{letter-spacing:-0.01em;}.cls-9{letter-spacing:-0.03em;}.cls-10{letter-spacing:0em;}</style></defs><rect class="cls-1" x="169.28" y="387.8" width="661.43" height="261.96" rx="130.98"/><line class="cls-2" x1="277.98" y1="508.06" x2="285.16" y2="512.62"/><line class="cls-2" x1="299.47" y1="496.44" x2="299.36" y2="505"/><line class="cls-2" x1="320.12" y1="508.88" x2="313" y2="513.57"/><line class="cls-2" x1="319.68" y1="534.25" x2="312.45" y2="529.76"/><line class="cls-2" x1="298.26" y1="537.38" x2="297.91" y2="545.94"/><line class="cls-2" x1="284.62" y1="528.81" x2="278.24" y2="531.89"/><path class="cls-3" d="M359.6,485.16a69.92,69.92,0,0,0-95.89-25.88c-33.57,19.52-45.07,62.77-25.69,96.58a69.91,69.91,0,0,0,95.88,25.88A71,71,0,0,0,359.6,485.16ZM321.22,521.4a22.72,22.72,0,1,1-22.72-22.34A22.54,22.54,0,0,1,321.22,521.4Z"/><ellipse class="cls-4" cx="298.8" cy="520.51" rx="84.23" ry="84.85"/><ellipse class="cls-2" cx="298.81" cy="521.19" rx="24.57" ry="24.75"/><path class="cls-5" d="M240.62,534.32l24.32-5.23-3.48,1.2a33.93,33.93,0,0,0,4.66,11,33.4,33.4,0,0,0,7,8.08l2.67-2.68-14,17.64,2.83,2.45c-5.25-3.36-10.14-9-13.79-14.88A54.08,54.08,0,0,1,243.65,530"/><path class="cls-5" d="M357,507.55l-24.32,5.23,3.47-1.2a33.86,33.86,0,0,0-4.66-11,33.14,33.14,0,0,0-7-8.07l-2.67,2.68,14-17.65-2.82-2.44c5.24,3.35,10.13,9,13.79,14.88a54.06,54.06,0,0,1,7.21,21.91"/><text class="cls-6" transform="translate(427.3 477.42)">Su<tspan class="cls-7" x="55.42" y="0">st</tspan><tspan x="94.52" y="0">ained </tspan><tspan x="0" y="58.8">Ele</tspan><tspan class="cls-8" x="65.9" y="58.8">c</tspan><tspan x="88.59" y="58.8">t</tspan><tspan class="cls-9" x="106.28" y="58.8">r</tspan><tspan x="123.77" y="58.8">o-</tspan><tspan class="cls-7" x="169.78" y="58.8">Ac</tspan><tspan class="cls-10" x="223.14" y="58.8">ou</tspan><tspan class="cls-7" x="276.65" y="58.8">s</tspan><tspan x="298.55" y="58.8">tic </tspan><tspan x="0" y="117.6">Music</tspan></text></svg>