<svg id="Livello_1" data-name="Livello 1" xmlns="http://www.w3.org/2000/svg" viewBox="0 0 1000 1000"><defs><style>.cls-1{fill:#fcfbfd;stroke-width:12px;}.cls-1,.cls-2,.cls-3,.cls-4,.cls-5,.cls-6,.cls-7,.cls-8{stroke:#292c2f;stroke-miterlimit:10;}.cls-2,.cls-4,.cls-5,.cls-7{fill:none;}.cls-2{stroke-width:2px;}.cls-3{fill:#b8c4cc;stroke-width:7px;}.cls-4{stroke-width:4px;}.cls-5{stroke-width:7px;}.cls-6{fill:#292c2f;stroke-width:8px;}.cls-7,.cls-8{stroke-width:9px;}.cls-8{fill:#fff;}</style></defs><path class="cls-1" d="M929.69,499.69a131,131,0,0,1-131,131H235.23a131,131,0,0,1-131-131h0a131,131,0,0,1,131-131H798.71a131,131,0,0,1,131,131"/><rect class="cls-2" x="117.78" y="381.58" width="798.89" height="235.76" rx="117.88"/><path class="cls-3" d="M295.94,464.33a69.92,69.92,0,0,0-95.88-25.88A71,71,0,0,0,174.37,535a69.91,69.91,0,0,0,95.88,25.88A71,71,0,0,0,295.94,464.33Zm-38.37,36.25a22.72,22.72,0,1,1-22.72-22.34A22.53,22.53,0,0,1,257.57,500.58Z"/><ellipse class="cls-4" cx="235.15" cy="499.69" rx="84.23" ry="84.85"/><ellipse class="cls-5" cx="235.16" cy="500.36" rx="24.57" ry="24.75"/><line class="cls-5" x1="214.33" y1="487.24" x2="221.51" y2="491.79"/><line class="cls-5" x1="235.82" y1="475.61" x2="235.7" y2="484.17"/><line class="cls-5" x1="256.47" y1="488.05" x2="249.35" y2="492.75"/><line class="cls-5" x1="256.03" y1="513.43" x2="248.8" y2="508.94"/><line class="cls-5" x1="234.61" y1="516.55" x2="234.26" y2="525.11"/><line class="cls-5" x1="220.97" y1="507.98" x2="214.59" y2="511.07"/><path class="cls-6" d="M177,513.49l24.31-5.23-3.47,1.2a34,34,0,0,0,4.66,11,33.38,33.38,0,0,0,7,8.08l2.67-2.68-14,17.64,2.83,2.44c-5.25-3.35-10.14-9-13.8-14.87A54.11,54.11,0,0,1,180,509.16"/><path class="cls-6" d="M293.29,486.72,269,492l3.48-1.21a33.93,33.93,0,0,0-4.66-11,33.38,33.38,0,0,0-7-8.08l-2.67,2.68,14-17.64-2.83-2.45c5.25,3.36,10.14,9,13.79,14.88a54,54,0,0,1,7.22,21.91"/><circle class="cls-7" cx="422.97" cy="499.8" r="80"/><circle class="cls-7" cx="611.03" cy="499.24" r="80"/><circle class="cls-7" cx="798.69" cy="498.37" r="80"/><path class="cls-8" d="M425.33,500.3H346.71a.51.51,0,0,1-.5-.5.5.5,0,0,1,.5-.5h78.62a.5.5,0,0,1,.5.5A.5.5,0,0,1,425.33,500.3Z"/><line class="cls-8" x1="346.71" y1="499.8" x2="425.33" y2="499.8"/><path class="cls-8" d="M611,577.39a.51.51,0,0,1-.5-.5v-80a.5.5,0,0,1,.5-.5.5.5,0,0,1,.5.5v80A.5.5,0,0,1,611,577.39Z"/><line class="cls-8" x1="611.03" y1="496.89" x2="611.03" y2="576.89"/><path class="cls-8" d="M798.69,498.87a.5.5,0,0,1-.5-.5V419.73a.5.5,0,0,1,.5-.49.49.49,0,0,1,.5.49v78.64A.5.5,0,0,1,798.69,498.87Z"/><line class="cls-8" x1="798.69" y1="418.37" x2="798.69" y2="498.37"/></svg>