<svg id="Livello_1" data-name="Livello 1" xmlns="http://www.w3.org/2000/svg" viewBox="0 0 1000 1000"><defs><style>.cls-1{fill:#b8c4cc;stroke-width:21px;}.cls-1,.cls-2,.cls-3,.cls-4{stroke:#292c2f;stroke-miterlimit:10;}.cls-2,.cls-3{fill:none;}.cls-2{stroke-width:12px;}.cls-3{stroke-width:21px;}.cls-4{fill:#292c2f;stroke-width:24px;}</style></defs><path class="cls-1" d="M702.73,372.89C644.58,271.44,515.8,236.68,415.08,295.25S279.86,483.55,338,585s186.93,136.21,287.64,77.64S760.87,474.35,702.73,372.89ZM587.6,481.63c0,37-30.51,67-68.15,67s-68.14-30-68.14-67,30.51-67,68.14-67S587.6,444.62,587.6,481.63Z"/><ellipse class="cls-2" cx="520.33" cy="478.95" rx="252.68" ry="254.54"/><ellipse class="cls-3" cx="520.37" cy="480.98" rx="73.7" ry="74.24"/><line class="cls-3" x1="457.88" y1="441.6" x2="479.43" y2="455.26"/><line class="cls-3" x1="522.36" y1="406.73" x2="522.01" y2="432.41"/><line class="cls-3" x1="584.3" y1="444.05" x2="562.94" y2="458.13"/><line class="cls-3" x1="582.97" y1="520.17" x2="561.3" y2="506.7"/><line class="cls-3" x1="518.73" y1="529.55" x2="517.67" y2="555.23"/><line class="cls-3" x1="477.79" y1="503.83" x2="458.65" y2="513.09"/><path class="cls-4" d="M345.79,520.37l73-15.7-10.43,3.61c3.32,13.8,7.39,22.3,14,33a100.07,100.07,0,0,0,21,24.23l8-8-41.89,52.93,8.49,7.33c-15.73-10.06-30.42-26.91-41.37-44.63-12.36-20-19-43.35-21.64-65.73"/><path class="cls-4" d="M694.78,440.06l-73,15.7,10.43-3.61c-3.32-13.8-7.39-22.3-14-33a99.87,99.87,0,0,0-21-24.24l-8,8,41.89-52.92-8.49-7.34c15.73,10.07,30.42,26.92,41.37,44.64,12.36,20,19,43.34,21.64,65.73"/></svg>