<svg id="Livello_1" data-name="Livello 1" xmlns="http://www.w3.org/2000/svg" viewBox="0 0 1000 1000"><defs><style>.cls-1{fill:#292c2f;}.cls-2{fill:none;stroke-width:21px;}.cls-2,.cls-3{stroke:#fff;stroke-miterlimit:10;}.cls-3{fill:#fff;stroke-width:24px;}</style></defs><ellipse class="cls-1" cx="523.18" cy="499.55" rx="252.68" ry="254.54"/><ellipse class="cls-2" cx="523.21" cy="499.55" rx="210.57" ry="212.12"/><ellipse class="cls-2" cx="523.21" cy="501.59" rx="73.7" ry="74.24"/><line class="cls-2" x1="460.73" y1="462.21" x2="482.28" y2="475.87"/><line class="cls-2" x1="525.21" y1="427.34" x2="524.85" y2="453.02"/><line class="cls-2" x1="587.15" y1="464.66" x2="565.79" y2="478.73"/><line class="cls-2" x1="585.82" y1="540.78" x2="564.15" y2="527.3"/><line class="cls-2" x1="521.57" y1="550.15" x2="520.51" y2="575.83"/><line class="cls-2" x1="480.64" y1="524.44" x2="461.5" y2="533.7"/><path class="cls-3" d="M348.64,541l72.95-15.7-10.42,3.61c3.32,13.8,7.38,22.3,14,33a99.87,99.87,0,0,0,21,24.24l8-8L412.27,631l8.49,7.33c-15.73-10.07-30.42-26.92-41.38-44.64-12.36-20-19-43.34-21.64-65.73"/><path class="cls-3" d="M697.62,460.67l-73,15.7,10.43-3.61c-3.32-13.8-7.39-22.3-14-33a99.85,99.85,0,0,0-21-24.23l-8,8L634,370.65l-8.49-7.33c15.73,10.06,30.42,26.91,41.37,44.63,12.37,20,19,43.35,21.65,65.73"/></svg>