<svg id="Livello_1" data-name="Livello 1" xmlns="http://www.w3.org/2000/svg" viewBox="0 0 1000 1000"><defs><style>.cls-1{fill:#fcfbfd;stroke-width:12px;}.cls-1,.cls-2,.cls-3,.cls-4,.cls-5,.cls-6{stroke:#292c2f;stroke-miterlimit:10;}.cls-2{fill:#b8c4cc;stroke-width:7px;}.cls-3,.cls-4,.cls-6{fill:none;}.cls-3{stroke-width:4px;}.cls-4{stroke-width:7px;}.cls-5{fill:#292c2f;stroke-width:8px;}.cls-6{font-size:49px;stroke-width:4px;font-family:Overpass-Thin, Overpass;font-weight:200;}.cls-7{letter-spacing:-0.01em;}.cls-8{letter-spacing:-0.01em;}.cls-9{letter-spacing:-0.03em;}.cls-10{letter-spacing:0em;}</style></defs><rect class="cls-1" x="189.28" y="391.06" width="661.43" height="261.96" rx="130.98"/><path class="cls-2" d="M380.05,485.62a69.9,69.9,0,0,0-95.88-25.88c-33.57,19.52-45.07,62.76-25.69,96.58a69.9,69.9,0,0,0,95.88,25.88C387.93,562.68,399.43,519.43,380.05,485.62Zm-38.37,36.24A22.72,22.72,0,1,1,319,499.52,22.53,22.53,0,0,1,341.68,521.86Z"/><ellipse class="cls-3" cx="319.25" cy="520.97" rx="84.23" ry="84.85"/><ellipse class="cls-4" cx="319.27" cy="521.64" rx="24.57" ry="24.75"/><line class="cls-4" x1="298.44" y1="508.52" x2="305.62" y2="513.07"/><line class="cls-4" x1="319.93" y1="496.9" x2="319.81" y2="505.46"/><line class="cls-4" x1="340.58" y1="509.34" x2="333.46" y2="514.03"/><line class="cls-4" x1="340.13" y1="534.71" x2="332.91" y2="530.22"/><line class="cls-4" x1="318.72" y1="537.83" x2="318.37" y2="546.39"/><line class="cls-4" x1="305.07" y1="529.26" x2="298.69" y2="532.35"/><path class="cls-5" d="M261.07,534.78l24.32-5.24-3.47,1.21a36.31,36.31,0,0,0,11.66,19.07l2.67-2.68-14,17.64,2.83,2.45c-5.24-3.36-10.14-9-13.79-14.88a54.11,54.11,0,0,1-7.21-21.91"/><path class="cls-5" d="M377.4,508l-24.32,5.23,3.48-1.21a33.82,33.82,0,0,0-4.67-11,33.34,33.34,0,0,0-7-8.08l-2.67,2.68,14-17.64-2.83-2.44c5.25,3.35,10.14,9,13.79,14.87a54.13,54.13,0,0,1,7.22,21.91"/><text class="cls-6" transform="translate(447.3 480.68)">Su<tspan class="cls-7" x="55.42" y="0">st</tspan><tspan x="94.52" y="0">ained </tspan><tspan x="0" y="58.8">Ele</tspan><tspan class="cls-8" x="65.9" y="58.8">c</tspan><tspan x="88.59" y="58.8">t</tspan><tspan class="cls-9" x="106.28" y="58.8">r</tspan><tspan x="123.77" y="58.8">o-</tspan><tspan class="cls-7" x="169.78" y="58.8">Ac</tspan><tspan class="cls-10" x="223.14" y="58.8">ou</tspan><tspan class="cls-7" x="276.65" y="58.8">s</tspan><tspan x="298.55" y="58.8">tic </tspan><tspan x="0" y="117.6">Music</tspan></text></svg>