<svg id="Livello_1" data-name="Livello 1" xmlns="http://www.w3.org/2000/svg" xmlns:xlink="http://www.w3.org/1999/xlink" viewBox="0 0 5683.85 4018.88"><defs><style>.cls-1,.cls-2,.cls-3{fill:none;}.cls-2,.cls-3,.cls-4{stroke:#f2f2f2;}.cls-2,.cls-3,.cls-4,.cls-5{stroke-miterlimit:10;}.cls-2{stroke-width:12px;}.cls-3,.cls-4{stroke-width:27px;}.cls-4{fill:#fcfbfd;}.cls-5{stroke:#1d1d1b;stroke-width:1px;fill:url(#seam);}</style><pattern id="seam" data-name="seam" width="1034.9" height="1042.32" patternTransform="translate(3893.11 -7.3) scale(1 1.01)" patternUnits="userSpaceOnUse" viewBox="0 0 1034.9 1042.32"><rect class="cls-1" width="1034.9" height="1042.32"/><ellipse class="cls-2" cx="776.17" cy="1042.32" rx="252.68" ry="254.54"/><ellipse class="cls-3" cx="776.21" cy="1042.32" rx="210.57" ry="212.12"/><ellipse class="cls-3" cx="776.21" cy="1044.36" rx="73.7" ry="74.24"/><line class="cls-3" x1="713.72" y1="1004.98" x2="735.27" y2="1018.64"/><line class="cls-3" x1="778.2" y1="970.11" x2="777.85" y2="995.79"/><line class="cls-3" x1="840.14" y1="1007.43" x2="818.79" y2="1021.5"/><path class="cls-3" d="M840.44,954.12"/><path class="cls-3" d="M880,898.48"/><path class="cls-3" d="M883,913.22"/><path class="cls-3" d="M837.13,967"/><path class="cls-3" d="M871.4,1026.73"/><path class="cls-4" d="M950.62,1003.44l-73,15.7,10.43-3.61c-3.32-13.8-7.39-22.3-14-33a100.07,100.07,0,0,0-21-24.23l-8,8L887,913.42l-8.49-7.33c15.73,10.06,30.42,26.91,41.37,44.63,12.36,20,19,43.35,21.64,65.73"/><ellipse class="cls-2" cx="258.72" cy="1042.32" rx="252.68" ry="254.54"/><ellipse class="cls-3" cx="258.76" cy="1042.32" rx="210.57" ry="212.12"/><ellipse class="cls-3" cx="258.76" cy="1044.36" rx="73.7" ry="74.24"/><line class="cls-3" x1="196.27" y1="1004.98" x2="217.82" y2="1018.64"/><line class="cls-3" x1="260.75" y1="970.11" x2="260.4" y2="995.79"/><line class="cls-3" x1="322.69" y1="1007.43" x2="301.34" y2="1021.5"/><path class="cls-3" d="M323,954.12"/><path class="cls-3" d="M362.57,898.48"/><path class="cls-3" d="M365.55,913.22"/><path class="cls-3" d="M319.68,967"/><path class="cls-3" d="M354,1026.73"/><path class="cls-4" d="M433.17,1003.44l-73,15.7,10.43-3.61c-3.32-13.8-7.39-22.3-14-33a100.07,100.07,0,0,0-21-24.23l-8,8,41.89-52.93-8.49-7.33c15.73,10.06,30.42,26.91,41.37,44.63,12.36,20,19,43.35,21.64,65.73"/><ellipse class="cls-2" cx="1034.9" cy="521.16" rx="252.68" ry="254.54"/><ellipse class="cls-3" cx="1034.93" cy="521.16" rx="210.57" ry="212.12"/><ellipse class="cls-3" cx="1034.93" cy="523.19" rx="73.7" ry="74.24"/><line class="cls-3" x1="972.45" y1="483.82" x2="994" y2="497.48"/><line class="cls-3" x1="1036.93" y1="448.95" x2="1036.57" y2="474.62"/><line class="cls-3" x1="1033.29" y1="571.76" x2="1032.23" y2="597.44"/><line class="cls-3" x1="992.36" y1="546.05" x2="973.22" y2="555.31"/><path class="cls-3" d="M922.51,527.7"/><path class="cls-4" d="M860.36,562.59l72.95-15.71-10.42,3.62c3.32,13.79,7.38,22.3,14,33a99.45,99.45,0,0,0,21,24.23l8-8L924,652.6l8.49,7.33C916.75,649.87,902.06,633,891.1,615.3c-12.36-20-19-43.34-21.64-65.73"/><path class="cls-3" d="M961.19,533.4"/><ellipse class="cls-2" cx="517.45" cy="521.16" rx="252.68" ry="254.54"/><ellipse class="cls-3" cx="517.48" cy="521.16" rx="210.57" ry="212.12"/><ellipse class="cls-3" cx="517.48" cy="523.19" rx="73.7" ry="74.24"/><line class="cls-3" x1="455" y1="483.82" x2="476.55" y2="497.48"/><line class="cls-3" x1="519.48" y1="448.95" x2="519.13" y2="474.62"/><line class="cls-3" x1="581.42" y1="486.26" x2="560.06" y2="500.34"/><line class="cls-3" x1="580.09" y1="562.38" x2="558.42" y2="548.91"/><line class="cls-3" x1="515.84" y1="571.76" x2="514.78" y2="597.44"/><line class="cls-3" x1="474.91" y1="546.05" x2="455.77" y2="555.31"/><path class="cls-3" d="M581.71,433"/><path class="cls-3" d="M405.06,527.7"/><path class="cls-3" d="M621.3,377.32"/><path class="cls-3" d="M624.27,392.06"/><path class="cls-3" d="M578.4,445.88"/><path class="cls-4" d="M342.91,562.59l73-15.71-10.43,3.62c3.32,13.79,7.39,22.3,14,33a99.67,99.67,0,0,0,21,24.23l8-8L406.54,652.6l8.49,7.33C399.3,649.87,384.61,633,373.65,615.3c-12.36-20-19-43.34-21.64-65.73"/><path class="cls-3" d="M443.74,533.4"/><path class="cls-3" d="M612.67,505.57"/><path class="cls-4" d="M691.89,482.28,618.94,498l10.42-3.62c-3.32-13.79-7.38-22.3-14-33a99.45,99.45,0,0,0-21-24.23l-8,8,41.88-52.92-8.49-7.33c15.73,10.06,30.42,26.91,41.38,44.63,12.36,20,19,43.34,21.64,65.73"/><ellipse class="cls-2" cy="521.16" rx="252.68" ry="254.54"/><ellipse class="cls-3" cx="0.04" cy="521.16" rx="210.57" ry="212.12"/><ellipse class="cls-3" cx="0.04" cy="523.19" rx="73.7" ry="74.24"/><line class="cls-3" x1="2.03" y1="448.95" x2="1.68" y2="474.62"/><line class="cls-3" x1="63.97" y1="486.26" x2="42.61" y2="500.34"/><line class="cls-3" x1="62.64" y1="562.38" x2="40.97" y2="548.91"/><line class="cls-3" x1="-1.61" y1="571.76" x2="-2.66" y2="597.44"/><path class="cls-3" d="M64.26,433"/><path class="cls-3" d="M103.85,377.32"/><path class="cls-3" d="M106.82,392.06"/><path class="cls-3" d="M61,445.88"/><path class="cls-3" d="M95.22,505.57"/><path class="cls-4" d="M174.44,482.28,101.49,498l10.42-3.62c-3.32-13.79-7.38-22.3-14-33a99.63,99.63,0,0,0-21-24.23l-8,8,41.88-52.92-8.49-7.33c15.73,10.06,30.42,26.91,41.38,44.63,12.36,20,19,43.34,21.64,65.73"/><ellipse class="cls-2" cx="776.17" rx="252.68" ry="254.54"/><ellipse class="cls-3" cx="776.21" rx="210.57" ry="212.12"/><ellipse class="cls-3" cx="776.21" cy="2.03" rx="73.7" ry="74.24"/><line class="cls-3" x1="838.81" y1="41.22" x2="817.14" y2="27.75"/><line class="cls-3" x1="774.57" y1="50.6" x2="773.51" y2="76.28"/><line class="cls-3" x1="733.63" y1="24.88" x2="714.49" y2="34.14"/><path class="cls-3" d="M663.79,6.54"/><path class="cls-4" d="M601.63,41.42l73-15.7-10.43,3.62c3.32,13.79,7.39,22.29,14,33a99.82,99.82,0,0,0,21,24.23l8-8-41.89,52.93,8.49,7.33c-15.73-10.06-30.42-26.91-41.37-44.63-12.36-20-19-43.35-21.64-65.73"/><path class="cls-3" d="M702.47,12.24"/><ellipse class="cls-2" cx="258.72" rx="252.68" ry="254.54"/><ellipse class="cls-3" cx="258.76" rx="210.57" ry="212.12"/><ellipse class="cls-3" cx="258.76" cy="2.03" rx="73.7" ry="74.24"/><line class="cls-3" x1="321.37" y1="41.22" x2="299.7" y2="27.75"/><line class="cls-3" x1="257.12" y1="50.6" x2="256.06" y2="76.28"/><line class="cls-3" x1="216.18" y1="24.88" x2="197.05" y2="34.14"/><path class="cls-3" d="M146.34,6.54"/><path class="cls-4" d="M84.18,41.42l73-15.7-10.43,3.62c3.32,13.79,7.39,22.29,14,33a99.82,99.82,0,0,0,21,24.23l8-8-41.88,52.93,8.48,7.33c-15.73-10.06-30.42-26.91-41.37-44.63-12.36-20-19-43.35-21.64-65.73"/><path class="cls-3" d="M185,12.24"/></pattern></defs><rect class="cls-5" width="5683.85" height="4018.88"/></svg>