<?xml version="1.0"?>
<svg xmlns="http://www.w3.org/2000/svg" xmlns:xlink="http://www.w3.org/1999/xlink" viewBox="0 0 400.600000 192.000000" width="200.300000mm" height="96.000000mm" version="1.1">
<rect x="1.000000" y="1.000000" width="399.600000" height="191.000000" rx="0" ry="0" style="stroke:none;fill:#cccccc;"/>
<rect x="0.000000" y="0.000000" width="399.600000" height="191.000000" rx="0" ry="0" style="stroke:none;fill:#ffffff;"/>
<text x="10.000000" y="7.000000" font-family="Arial" font-size="7"></text>
<rect x="169.300000" y="33.000000" width="24.000000" height="24.000000" rx="0" ry="0" style="stroke:none;fill:#cccccc;"/>
<rect x="168.300000" y="32.000000" width="24.000000" height="24.000000" rx="0" ry="0" style="stroke:none;fill:#f44800;"/>
<text x="180.300000" y="46.000000" font-family="Arial" font-size="7" text-anchor="middle" fill="#FFFFFF">1</text>
<circle cx="170.300000" cy="34.000000" r="1"/>
<rect x="91.000000" y="75.000000" width="180.600000" height="24.000000" rx="0" ry="0" style="stroke:none;fill:#cccccc;"/>
<rect x="90.000000" y="74.000000" width="180.600000" height="24.000000" rx="0" ry="0" style="stroke:none;fill:#477881;"/>
<text x="180.300000" y="88.000000" font-family="Arial" font-size="7" text-anchor="middle" fill="#FFFFFF">hslider(panner, 0.5f, 0.0f, 1.0f, 0.01f)</text>
<circle cx="92.000000" cy="76.000000" r="1"/>
<line x1="81.000000" y1="65.000000" x2="81.000000" y2="107.000000"  style="stroke: black; stroke-linecap:round; stroke-width:0.25; stroke-dasharray:3,3;"/>
<line x1="81.000000" y1="107.000000" x2="279.600000" y2="107.000000"  style="stroke: black; stroke-linecap:round; stroke-width:0.25; stroke-dasharray:3,3;"/>
<line x1="279.600000" y1="107.000000" x2="279.600000" y2="65.000000"  style="stroke: black; stroke-linecap:round; stroke-width:0.25; stroke-dasharray:3,3;"/>
<line x1="81.000000" y1="65.000000" x2="86.000000" y2="65.000000"  style="stroke: black; stroke-linecap:round; stroke-width:0.25; stroke-dasharray:3,3;"/>
<line x1="95.675000" y1="65.000000" x2="279.600000" y2="65.000000"  style="stroke: black; stroke-linecap:round; stroke-width:0.25; stroke-dasharray:3,3;"/>
<text x="86.000000" y="67.000000" font-family="Arial" font-size="7">k</text>
<rect x="297.600000" y="59.000000" width="24.000000" height="24.000000" rx="0" ry="0" style="stroke:none;fill:#cccccc;"/>
<rect x="296.600000" y="58.000000" width="24.000000" height="24.000000" rx="0" ry="0" style="stroke:none;fill:#4B71A1;"/>
<text x="308.600000" y="72.000000" font-family="Arial" font-size="7" text-anchor="middle" fill="#FFFFFF">-</text>
<circle cx="298.600000" cy="60.000000" r="1"/>
<line x1="293.600000" y1="65.000000" x2="296.600000" y2="66.000000"  transform="rotate(0.000000,296.600000,66.000000)" style="stroke: black; stroke-width:0.25;"/>
<line x1="293.600000" y1="67.000000" x2="296.600000" y2="66.000000"  transform="rotate(0.000000,296.600000,66.000000)" style="stroke: black; stroke-width:0.25;"/>
<line x1="293.600000" y1="73.000000" x2="296.600000" y2="74.000000"  transform="rotate(0.000000,296.600000,74.000000)" style="stroke: black; stroke-width:0.25;"/>
<line x1="293.600000" y1="75.000000" x2="296.600000" y2="74.000000"  transform="rotate(0.000000,296.600000,74.000000)" style="stroke: black; stroke-width:0.25;"/>
<rect x="337.600000" y="55.000000" width="24.000000" height="24.000000" rx="0" ry="0" style="stroke:none;fill:#cccccc;"/>
<rect x="336.600000" y="54.000000" width="24.000000" height="24.000000" rx="0" ry="0" style="stroke:none;fill:#4B71A1;"/>
<text x="348.600000" y="68.000000" font-family="Arial" font-size="7" text-anchor="middle" fill="#FFFFFF">*</text>
<circle cx="338.600000" cy="56.000000" r="1"/>
<line x1="333.600000" y1="61.000000" x2="336.600000" y2="62.000000"  transform="rotate(0.000000,336.600000,62.000000)" style="stroke: black; stroke-width:0.25;"/>
<line x1="333.600000" y1="63.000000" x2="336.600000" y2="62.000000"  transform="rotate(0.000000,336.600000,62.000000)" style="stroke: black; stroke-width:0.25;"/>
<line x1="333.600000" y1="69.000000" x2="336.600000" y2="70.000000"  transform="rotate(0.000000,336.600000,70.000000)" style="stroke: black; stroke-width:0.25;"/>
<line x1="333.600000" y1="71.000000" x2="336.600000" y2="70.000000"  transform="rotate(0.000000,336.600000,70.000000)" style="stroke: black; stroke-width:0.25;"/>
<rect x="111.000000" y="135.000000" width="180.600000" height="24.000000" rx="0" ry="0" style="stroke:none;fill:#cccccc;"/>
<rect x="110.000000" y="134.000000" width="180.600000" height="24.000000" rx="0" ry="0" style="stroke:none;fill:#477881;"/>
<text x="200.300000" y="148.000000" font-family="Arial" font-size="7" text-anchor="middle" fill="#FFFFFF">hslider(panner, 0.5f, 0.0f, 1.0f, 0.01f)</text>
<circle cx="112.000000" cy="136.000000" r="1"/>
<line x1="101.000000" y1="125.000000" x2="101.000000" y2="167.000000"  style="stroke: black; stroke-linecap:round; stroke-width:0.25; stroke-dasharray:3,3;"/>
<line x1="101.000000" y1="167.000000" x2="299.600000" y2="167.000000"  style="stroke: black; stroke-linecap:round; stroke-width:0.25; stroke-dasharray:3,3;"/>
<line x1="299.600000" y1="167.000000" x2="299.600000" y2="125.000000"  style="stroke: black; stroke-linecap:round; stroke-width:0.25; stroke-dasharray:3,3;"/>
<line x1="101.000000" y1="125.000000" x2="106.000000" y2="125.000000"  style="stroke: black; stroke-linecap:round; stroke-width:0.25; stroke-dasharray:3,3;"/>
<line x1="115.675000" y1="125.000000" x2="299.600000" y2="125.000000"  style="stroke: black; stroke-linecap:round; stroke-width:0.25; stroke-dasharray:3,3;"/>
<text x="106.000000" y="127.000000" font-family="Arial" font-size="7">k</text>
<rect x="317.600000" y="131.000000" width="24.000000" height="24.000000" rx="0" ry="0" style="stroke:none;fill:#cccccc;"/>
<rect x="316.600000" y="130.000000" width="24.000000" height="24.000000" rx="0" ry="0" style="stroke:none;fill:#4B71A1;"/>
<text x="328.600000" y="144.000000" font-family="Arial" font-size="7" text-anchor="middle" fill="#FFFFFF">*</text>
<circle cx="318.600000" cy="132.000000" r="1"/>
<line x1="313.600000" y1="137.000000" x2="316.600000" y2="138.000000"  transform="rotate(0.000000,316.600000,138.000000)" style="stroke: black; stroke-width:0.25;"/>
<line x1="313.600000" y1="139.000000" x2="316.600000" y2="138.000000"  transform="rotate(0.000000,316.600000,138.000000)" style="stroke: black; stroke-width:0.25;"/>
<line x1="313.600000" y1="145.000000" x2="316.600000" y2="146.000000"  transform="rotate(0.000000,316.600000,146.000000)" style="stroke: black; stroke-width:0.25;"/>
<line x1="313.600000" y1="147.000000" x2="316.600000" y2="146.000000"  transform="rotate(0.000000,316.600000,146.000000)" style="stroke: black; stroke-width:0.25;"/>
<line x1="15.000000" y1="15.000000" x2="15.000000" y2="177.000000"  style="stroke: black; stroke-linecap:round; stroke-width:0.25; stroke-dasharray:3,3;"/>
<line x1="15.000000" y1="177.000000" x2="385.600000" y2="177.000000"  style="stroke: black; stroke-linecap:round; stroke-width:0.25; stroke-dasharray:3,3;"/>
<line x1="385.600000" y1="177.000000" x2="385.600000" y2="15.000000"  style="stroke: black; stroke-linecap:round; stroke-width:0.25; stroke-dasharray:3,3;"/>
<line x1="15.000000" y1="15.000000" x2="20.000000" y2="15.000000"  style="stroke: black; stroke-linecap:round; stroke-width:0.25; stroke-dasharray:3,3;"/>
<line x1="49.025000" y1="15.000000" x2="385.600000" y2="15.000000"  style="stroke: black; stroke-linecap:round; stroke-width:0.25; stroke-dasharray:3,3;"/>
<text x="20.000000" y="17.000000" font-family="Arial" font-size="7">process</text>
<line x1="387.600000" y1="91.000000" x2="390.600000" y2="92.000000"  transform="rotate(0.000000,390.600000,92.000000)" style="stroke: black; stroke-width:0.25;"/>
<line x1="387.600000" y1="93.000000" x2="390.600000" y2="92.000000"  transform="rotate(0.000000,390.600000,92.000000)" style="stroke: black; stroke-width:0.25;"/>
<line x1="387.600000" y1="99.000000" x2="390.600000" y2="100.000000"  transform="rotate(0.000000,390.600000,100.000000)" style="stroke: black; stroke-width:0.25;"/>
<line x1="387.600000" y1="101.000000" x2="390.600000" y2="100.000000"  transform="rotate(0.000000,390.600000,100.000000)" style="stroke: black; stroke-width:0.25;"/>
<line x1="10.000000" y1="96.000000" x2="20.000000" y2="96.000000"  style="stroke:black; stroke-linecap:round; stroke-width:0.25;"/>
<line x1="20.000000" y1="96.000000" x2="24.000000" y2="96.000000"  style="stroke:black; stroke-linecap:round; stroke-width:0.25;"/>
<line x1="24.000000" y1="96.000000" x2="28.000000" y2="96.000000"  style="stroke:black; stroke-linecap:round; stroke-width:0.25;"/>
<line x1="28.000000" y1="96.000000" x2="28.000000" y2="96.000000"  style="stroke:black; stroke-linecap:round; stroke-width:0.25;"/>
<line x1="28.000000" y1="96.000000" x2="32.000000" y2="96.000000"  style="stroke:black; stroke-linecap:round; stroke-width:0.25;"/>
<line x1="32.000000" y1="96.000000" x2="36.000000" y2="96.000000"  style="stroke:black; stroke-linecap:round; stroke-width:0.25;"/>
<line x1="36.000000" y1="96.000000" x2="76.000000" y2="116.000000"  style="stroke:black; stroke-linecap:round; stroke-width:0.25;"/>
<line x1="36.000000" y1="96.000000" x2="76.000000" y2="24.000000"  style="stroke:black; stroke-linecap:round; stroke-width:0.25;"/>
<line x1="76.000000" y1="116.000000" x2="96.000000" y2="116.000000"  style="stroke:black; stroke-linecap:round; stroke-width:0.25;"/>
<line x1="76.000000" y1="24.000000" x2="200.300000" y2="24.000000"  style="stroke:black; stroke-linecap:round; stroke-width:0.25;"/>
<line x1="96.000000" y1="116.000000" x2="200.300000" y2="116.000000"  style="stroke:black; stroke-linecap:round; stroke-width:0.25;"/>
<line x1="192.300000" y1="44.000000" x2="196.300000" y2="44.000000"  style="stroke:black; stroke-linecap:round; stroke-width:0.25;"/>
<line x1="196.300000" y1="44.000000" x2="284.600000" y2="44.000000"  style="stroke:black; stroke-linecap:round; stroke-width:0.25;"/>
<line x1="200.300000" y1="24.000000" x2="324.600000" y2="24.000000"  style="stroke:black; stroke-linecap:round; stroke-width:0.25;"/>
<line x1="200.300000" y1="116.000000" x2="304.600000" y2="116.000000"  style="stroke:black; stroke-linecap:round; stroke-width:0.25;"/>
<line x1="270.600000" y1="86.000000" x2="274.600000" y2="86.000000"  style="stroke:black; stroke-linecap:round; stroke-width:0.25;"/>
<line x1="274.600000" y1="86.000000" x2="284.600000" y2="86.000000"  style="stroke:black; stroke-linecap:round; stroke-width:0.25;"/>
<line x1="284.600000" y1="44.000000" x2="292.600000" y2="44.000000"  style="stroke:black; stroke-linecap:round; stroke-width:0.25;"/>
<line x1="284.600000" y1="74.000000" x2="292.600000" y2="74.000000"  style="stroke:black; stroke-linecap:round; stroke-width:0.25;"/>
<line x1="284.600000" y1="86.000000" x2="284.600000" y2="74.000000"  style="stroke:black; stroke-linecap:round; stroke-width:0.25;"/>
<line x1="284.600000" y1="86.000000" x2="284.600000" y2="86.000000"  style="stroke:black; stroke-linecap:round; stroke-width:0.25;"/>
<line x1="290.600000" y1="146.000000" x2="294.600000" y2="146.000000"  style="stroke:black; stroke-linecap:round; stroke-width:0.25;"/>
<line x1="292.600000" y1="44.000000" x2="292.600000" y2="66.000000"  style="stroke:black; stroke-linecap:round; stroke-width:0.25;"/>
<line x1="292.600000" y1="66.000000" x2="292.600000" y2="66.000000"  style="stroke:black; stroke-linecap:round; stroke-width:0.25;"/>
<line x1="292.600000" y1="66.000000" x2="296.600000" y2="66.000000"  style="stroke:black; stroke-linecap:round; stroke-width:0.25;"/>
<line x1="292.600000" y1="74.000000" x2="296.600000" y2="74.000000"  style="stroke:black; stroke-linecap:round; stroke-width:0.25;"/>
<line x1="294.600000" y1="146.000000" x2="304.600000" y2="146.000000"  style="stroke:black; stroke-linecap:round; stroke-width:0.25;"/>
<line x1="304.600000" y1="116.000000" x2="312.600000" y2="116.000000"  style="stroke:black; stroke-linecap:round; stroke-width:0.25;"/>
<line x1="304.600000" y1="146.000000" x2="312.600000" y2="146.000000"  style="stroke:black; stroke-linecap:round; stroke-width:0.25;"/>
<line x1="312.600000" y1="116.000000" x2="312.600000" y2="138.000000"  style="stroke:black; stroke-linecap:round; stroke-width:0.25;"/>
<line x1="312.600000" y1="138.000000" x2="312.600000" y2="138.000000"  style="stroke:black; stroke-linecap:round; stroke-width:0.25;"/>
<line x1="312.600000" y1="138.000000" x2="316.600000" y2="138.000000"  style="stroke:black; stroke-linecap:round; stroke-width:0.25;"/>
<line x1="312.600000" y1="146.000000" x2="316.600000" y2="146.000000"  style="stroke:black; stroke-linecap:round; stroke-width:0.25;"/>
<line x1="320.600000" y1="70.000000" x2="324.600000" y2="70.000000"  style="stroke:black; stroke-linecap:round; stroke-width:0.25;"/>
<line x1="324.600000" y1="24.000000" x2="332.600000" y2="24.000000"  style="stroke:black; stroke-linecap:round; stroke-width:0.25;"/>
<line x1="324.600000" y1="70.000000" x2="332.600000" y2="70.000000"  style="stroke:black; stroke-linecap:round; stroke-width:0.25;"/>
<line x1="332.600000" y1="24.000000" x2="332.600000" y2="62.000000"  style="stroke:black; stroke-linecap:round; stroke-width:0.25;"/>
<line x1="332.600000" y1="62.000000" x2="332.600000" y2="62.000000"  style="stroke:black; stroke-linecap:round; stroke-width:0.25;"/>
<line x1="332.600000" y1="62.000000" x2="336.600000" y2="62.000000"  style="stroke:black; stroke-linecap:round; stroke-width:0.25;"/>
<line x1="332.600000" y1="70.000000" x2="336.600000" y2="70.000000"  style="stroke:black; stroke-linecap:round; stroke-width:0.25;"/>
<line x1="340.600000" y1="142.000000" x2="344.600000" y2="142.000000"  style="stroke:black; stroke-linecap:round; stroke-width:0.25;"/>
<line x1="344.600000" y1="142.000000" x2="364.600000" y2="142.000000"  style="stroke:black; stroke-linecap:round; stroke-width:0.25;"/>
<line x1="360.600000" y1="66.000000" x2="364.600000" y2="66.000000"  style="stroke:black; stroke-linecap:round; stroke-width:0.25;"/>
<line x1="364.600000" y1="66.000000" x2="372.600000" y2="66.000000"  style="stroke:black; stroke-linecap:round; stroke-width:0.25;"/>
<line x1="364.600000" y1="100.000000" x2="372.600000" y2="100.000000"  style="stroke:black; stroke-linecap:round; stroke-width:0.25;"/>
<line x1="364.600000" y1="142.000000" x2="364.600000" y2="100.000000"  style="stroke:black; stroke-linecap:round; stroke-width:0.25;"/>
<line x1="364.600000" y1="142.000000" x2="364.600000" y2="142.000000"  style="stroke:black; stroke-linecap:round; stroke-width:0.25;"/>
<line x1="372.600000" y1="66.000000" x2="372.600000" y2="92.000000"  style="stroke:black; stroke-linecap:round; stroke-width:0.25;"/>
<line x1="372.600000" y1="92.000000" x2="372.600000" y2="92.000000"  style="stroke:black; stroke-linecap:round; stroke-width:0.25;"/>
<line x1="372.600000" y1="92.000000" x2="376.600000" y2="92.000000"  style="stroke:black; stroke-linecap:round; stroke-width:0.25;"/>
<line x1="372.600000" y1="100.000000" x2="376.600000" y2="100.000000"  style="stroke:black; stroke-linecap:round; stroke-width:0.25;"/>
<line x1="376.600000" y1="92.000000" x2="380.600000" y2="92.000000"  style="stroke:black; stroke-linecap:round; stroke-width:0.25;"/>
<line x1="376.600000" y1="100.000000" x2="380.600000" y2="100.000000"  style="stroke:black; stroke-linecap:round; stroke-width:0.25;"/>
<line x1="380.600000" y1="92.000000" x2="390.600000" y2="92.000000"  style="stroke:black; stroke-linecap:round; stroke-width:0.25;"/>
<line x1="380.600000" y1="100.000000" x2="390.600000" y2="100.000000"  style="stroke:black; stroke-linecap:round; stroke-width:0.25;"/>
</svg>
